<?xml version="1.0" encoding="UTF-8" standalone="no"?>
<!-- Created with Inkscape (http://www.inkscape.org/) -->

<svg
   width="3.4970984mm"
   height="5.291667mm"
   viewBox="0 0 3.4970984 5.291667"
   version="1.1"
   id="svg1"
   xml:space="preserve"
   xmlns:inkscape="http://www.inkscape.org/namespaces/inkscape"
   xmlns:sodipodi="http://sodipodi.sourceforge.net/DTD/sodipodi-0.dtd"
   xmlns:xlink="http://www.w3.org/1999/xlink"
   xmlns="http://www.w3.org/2000/svg"
   xmlns:svg="http://www.w3.org/2000/svg"><sodipodi:namedview
     id="namedview1"
     pagecolor="#ffffff"
     bordercolor="#000000"
     borderopacity="0.25"
     inkscape:showpageshadow="2"
     inkscape:pageopacity="0.0"
     inkscape:pagecheckerboard="0"
     inkscape:deskcolor="#d1d1d1"
     inkscape:document-units="mm" /><defs
     id="defs1"><linearGradient
       id="linearGradient2"
       inkscape:collect="always"><stop
         style="stop-color:#ffdb46;stop-opacity:1;"
         offset="0"
         id="stop2" /><stop
         style="stop-color:#ff749b;stop-opacity:1;"
         offset="1"
         id="stop3" /></linearGradient><linearGradient
       inkscape:collect="always"
       xlink:href="#linearGradient2"
       id="linearGradient3"
       x1="5.7929034"
       y1="115.31398"
       x2="21.956869"
       y2="150.72119"
       gradientUnits="userSpaceOnUse" /></defs><g
     inkscape:label="Vrstva 1"
     inkscape:groupmode="layer"
     id="layer1"
     transform="translate(-4.5766255,-114.82512)"><g
       id="g3"
       inkscape:export-filename="auto.png"
       inkscape:export-xdpi="96"
       inkscape:export-ydpi="96"
       transform="matrix(0.14652405,0,0,0.14652405,3.9060396,98.000473)"><path
         style="fill:url(#linearGradient3);fill-opacity:1;stroke:none;stroke-width:0.264999;stroke-dasharray:none;stroke-opacity:1"
         d="m 4.5766252,116.53747 v 25.94449 c 0,0 1.051161,2.58012 3.296817,1.29006 0,0 3.7268338,-3.29681 5.0646718,-2.96235 l 3.679054,8.12258 c 0,0 1.863417,2.91458 5.255791,1.72008 3.392375,-1.1945 2.341216,-5.06467 2.341216,-5.06467 l -3.392374,-7.54923 c 0,0 0.14334,-1.29006 6.16361,-1.09894 0,0 3.249035,-1.14672 0.04778,-3.72683 L 8.6379202,115.72521 c -0.31791,-0.31814 -2.567912,-2.26634 -4.061295,0.81226 z"
         id="path2"
         sodipodi:nodetypes="cccccscccccc" /><path
         style="fill:#212121;fill-opacity:1;stroke:none;stroke-width:0.265;stroke-dasharray:none"
         d="m 6.5356042,116.29856 -0.09556,26.37452 c 0,0 5.5902538,-5.06467 7.5970088,-3.39237 l 4.252414,8.93485 c 0,0 3.426048,2.82189 4.730212,-1.52896 l -3.870174,-8.26593 c 0,0 -2.006755,-3.29681 7.835907,-3.15347 z"
         id="path1"
         sodipodi:nodetypes="cccccccc" /></g></g></svg>
