<?xml version="1.0" encoding="UTF-8" standalone="no"?>
<!-- Created with Inkscape (http://www.inkscape.org/) -->

<svg
   width="2.4202878mm"
   height="5.291667mm"
   viewBox="0 0 2.4202878 5.291667"
   version="1.1"
   id="svg1"
   xml:space="preserve"
   xmlns:inkscape="http://www.inkscape.org/namespaces/inkscape"
   xmlns:sodipodi="http://sodipodi.sourceforge.net/DTD/sodipodi-0.dtd"
   xmlns:xlink="http://www.w3.org/1999/xlink"
   xmlns="http://www.w3.org/2000/svg"
   xmlns:svg="http://www.w3.org/2000/svg"><sodipodi:namedview
     id="namedview1"
     pagecolor="#ffffff"
     bordercolor="#000000"
     borderopacity="0.25"
     inkscape:showpageshadow="2"
     inkscape:pageopacity="0.0"
     inkscape:pagecheckerboard="0"
     inkscape:deskcolor="#d1d1d1"
     inkscape:document-units="mm" /><defs
     id="defs1"><linearGradient
       id="linearGradient12"
       inkscape:collect="always"><stop
         style="stop-color:#ffd841;stop-opacity:1;"
         offset="0"
         id="stop12" /><stop
         style="stop-color:#ff7699;stop-opacity:1;"
         offset="1"
         id="stop13" /></linearGradient><linearGradient
       inkscape:collect="always"
       xlink:href="#linearGradient12"
       id="linearGradient13"
       x1="22.42449"
       y1="112.4447"
       x2="22.552608"
       y2="118.67709"
       gradientUnits="userSpaceOnUse" /></defs><g
     inkscape:label="Vrstva 1"
     inkscape:groupmode="layer"
     id="layer1"
     transform="translate(-18.214993,-115.13443)"><g
       id="g13"
       inkscape:export-filename="text.png"
       inkscape:export-xdpi="96"
       inkscape:export-ydpi="96"
       transform="matrix(0.83814258,0,0,0.83814258,0.57652646,20.928666)"><path
         style="fill:url(#linearGradient13);fill-opacity:1;stroke:none;stroke-width:0.0529167;stroke-dasharray:none;stroke-opacity:1"
         d="m 21.819216,113.69437 v 3.73778 l -0.162424,0.003 c 0,0 -0.595792,0.0733 -0.597613,0.55669 -0.0019,0.51614 0.09124,0.61185 0.562534,0.71934 h 1.686425 c 0,0 0.624251,0.0455 0.624251,-0.62425 0,-0.66973 -0.558105,-0.65319 -0.558105,-0.65319 h -0.243913 v -3.73311 h 0.326595 c 0,0 0.343132,-0.0372 0.363802,-0.64905 0.02067,-0.61185 -0.599446,-0.65319 -0.599446,-0.65319 h -1.546159 c 0,0 -0.630453,-0.0248 -0.630453,0.63045 0,0.65526 0.556039,0.64285 0.556039,0.64285 h 0.220141 z"
         id="path12"
         sodipodi:nodetypes="cccsccsccccsccsccc" /><path
         style="fill:#212121;fill-opacity:1;stroke:none;stroke-width:0.0529167;stroke-dasharray:none;stroke-opacity:1"
         d="m 21.765085,112.70343 c 0,0 -0.347868,0.004 -0.353714,0.3393 -0.0058,0.33548 0.368557,0.34717 0.33775,0.34425 -0.03081,-0.003 0.384295,-0.009 0.384295,-0.009 l 0.0029,4.3235 -0.387219,0.003 c 0,0 -0.308517,-0.008 -0.34652,0.33141 0,0 0.03039,0.31494 0.29235,0.33945 0.261962,0.0245 1.435321,0 1.435321,0 0,0 0.374177,0.0426 0.382947,-0.35791 0,0 -0.02438,-0.30963 -0.332286,-0.32741 l -0.369104,0.003 h -0.01653 v -4.32023 l 0.380369,0.007 c 0,0 0.321397,0.002 0.3369,-0.33721 0,0 0.01039,-0.32243 -0.336902,-0.34477 z"
         id="path10" /></g></g></svg>
