<?xml version="1.0" encoding="UTF-8" standalone="no"?>
<svg
   viewBox="0 0 147.8705 147.8716"
   width="27.725719"
   height="27.725925"
   version="1.1"
   id="svg2"
   sodipodi:docname="slunce.svg"
   xmlns:inkscape="http://www.inkscape.org/namespaces/inkscape"
   xmlns:sodipodi="http://sodipodi.sourceforge.net/DTD/sodipodi-0.dtd"
   xmlns="http://www.w3.org/2000/svg"
   xmlns:svg="http://www.w3.org/2000/svg">
  <defs
     id="defs2" />
  <sodipodi:namedview
     id="namedview2"
     pagecolor="#ffffff"
     bordercolor="#000000"
     borderopacity="0.25"
     inkscape:showpageshadow="2"
     inkscape:pageopacity="0.0"
     inkscape:pagecheckerboard="0"
     inkscape:deskcolor="#d1d1d1" />
  <g
     fill="#011f2a"
     fill-rule="nonzero"
     stroke="none"
     stroke-width="1"
     stroke-linecap="butt"
     stroke-linejoin="miter"
     stroke-miterlimit="10"
     stroke-dasharray="none"
     stroke-dashoffset="0"
     font-family="none"
     font-weight="none"
     font-size="none"
     text-anchor="none"
     style="mix-blend-mode:normal"
     id="g2"
     inkscape:export-filename="slunce.svg"
     inkscape:export-xdpi="96"
     inkscape:export-ydpi="96"
     transform="matrix(0.69240383,0,0,0.69240383,-14.692383,-14.691273)">
    <g
       transform="scale(5.33333)"
       id="g1">
      <path
         d="M 23.97656,3.97852 C 23.1489,3.99145 22.48812,4.67233 22.5,5.5 v 3 c -0.0077,0.54095 0.27656,1.04412 0.74381,1.31683 0.46725,0.27271 1.04514,0.27271 1.51238,0 C 25.22344,9.54412 25.50765,9.04095 25.5,8.5 v -3 C 25.50582,5.09438 25.34712,4.7037 25.06009,4.41704 24.77306,4.13038 24.38217,3.97218 23.97656,3.97852 Z M 10.90234,9.4043 c -0.61065,1.5e-4 -1.16026,0.37042 -1.38978,0.93629 -0.22952,0.56587 -0.09314,1.21439 0.34486,1.63988 l 2.12109,2.12109 c 0.58626,0.58626 1.53678,0.58626 2.12305,0 0.58626,-0.58626 0.58626,-1.53678 0,-2.12305 L 11.98047,9.85742 C 11.69719,9.56675 11.30822,9.40327 10.90235,9.4043 Z m 26.14844,0 c -0.38956,0.01135 -0.75941,0.17386 -1.03125,0.45313 l -2.12109,2.12109 c -0.58626,0.58626 -0.58626,1.53678 0,2.12305 0.58626,0.58626 1.53678,0.58626 2.12305,0 l 2.12109,-2.12109 c 0.44468,-0.43137 0.57845,-1.09172 0.33671,-1.66214 C 38.23754,9.74792 37.67001,9.38478 37.05079,9.40431 Z M 24,13 c -6.05737,0 -11,4.94264 -11,11 0,6.05736 4.94263,11 11,11 6.05737,0 11,-4.94264 11,-11 0,-6.05736 -4.94263,-11 -11,-11 z m 0,3 c 4.43605,0 8,3.56395 8,8 0,4.43605 -3.56395,8 -8,8 -4.43605,0 -8,-3.56395 -8,-8 0,-4.43605 3.56395,-8 8,-8 z M 5.5,22.5 c -0.54095,-0.0077 -1.04412,0.27656 -1.31683,0.74381 -0.27271,0.46725 -0.27271,1.04514 0,1.51238 C 4.45588,25.22344 4.95905,25.50765 5.5,25.5 h 3 c 0.54095,0.0077 1.04412,-0.27656 1.31683,-0.74381 0.27271,-0.46725 0.27271,-1.04514 0,-1.51238 C 9.54412,22.77656 9.04095,22.49235 8.5,22.5 Z m 34,0 c -0.54095,-0.0077 -1.04412,0.27656 -1.31683,0.74381 -0.27271,0.46725 -0.27271,1.04514 0,1.51238 0.27271,0.46725 0.77588,0.75146 1.31683,0.74381 h 3 c 0.54095,0.0077 1.04412,-0.27656 1.31683,-0.74381 0.27271,-0.46725 0.27271,-1.04514 0,-1.51238 C 43.54412,22.77656 43.04095,22.49235 42.5,22.5 Z M 13.00977,33.44531 c -0.38956,0.01135 -0.75941,0.17386 -1.03125,0.45313 l -2.12109,2.12109 c -0.37938,0.37922 -0.5276,0.93205 -0.3888,1.45019 0.1388,0.51814 0.54351,0.92286 1.06165,1.06165 0.51814,0.1388 1.07097,-0.0094 1.45019,-0.3888 l 2.12109,-2.12109 c 0.44468,-0.43137 0.57845,-1.09172 0.33671,-1.66214 -0.24175,-0.57042 -0.80928,-0.93356 -1.4285,-0.91403 z m 21.93359,0 c -0.61064,1.5e-4 -1.16026,0.37042 -1.38978,0.93629 -0.22952,0.56587 -0.09314,1.21439 0.34486,1.63988 l 2.12109,2.12109 c 0.58626,0.58626 1.53678,0.58626 2.12305,0 0.58626,-0.58626 0.58626,-1.53678 0,-2.12305 L 36.02149,33.89843 C 35.73821,33.60776 35.34924,33.44428 34.94337,33.4453 Z m -10.9668,4.53321 C 23.1489,37.99145 22.48813,38.67233 22.5,39.5 v 3 c -0.0077,0.54095 0.27656,1.04412 0.74381,1.31683 0.46725,0.27271 1.04514,0.27271 1.51238,0 C 25.22344,43.54412 25.50765,43.04095 25.5,42.5 v -3 c 0.0058,-0.40562 -0.15288,-0.7963 -0.43991,-1.08296 -0.28703,-0.28666 -0.67792,-0.44486 -1.08353,-0.43852 z"
         id="path1" />
    </g>
  </g>
</svg>
